     <svg
          width="184"
          height="62"
          viewBox="0 0 184 62"
          fill="none"
          xmlns="http://www.w3.org/2000/svg"
        >
          <g filter="url(#filter0_dd_7_129)">
            <mask
              id="path-1-outside-1_7_129"
              maskUnits="userSpaceOnUse"
              x="107"
              y="10"
              width="32"
              height="37"
              fill="black"
            >
              <rect fill="white" x="107" y="10" width="32" height="37" />
              <path d="M108.034 46V11.0909H115.415V25.4943H130.398V11.0909H137.761V46H130.398V31.5795H115.415V46H108.034Z" />
            </mask>
            <path
              d="M108.034 46V11.0909H115.415V25.4943H130.398V11.0909H137.761V46H130.398V31.5795H115.415V46H108.034Z"
              fill="#006B5E"
            />
            <path
              d="M108.034 46H107.034V47H108.034V46ZM108.034 11.0909V10.0909H107.034V11.0909H108.034ZM115.415 11.0909H116.415V10.0909H115.415V11.0909ZM115.415 25.4943H114.415V26.4943H115.415V25.4943ZM130.398 25.4943V26.4943H131.398V25.4943H130.398ZM130.398 11.0909V10.0909H129.398V11.0909H130.398ZM137.761 11.0909H138.761V10.0909H137.761V11.0909ZM137.761 46V47H138.761V46H137.761ZM130.398 46H129.398V47H130.398V46ZM130.398 31.5795H131.398V30.5795H130.398V31.5795ZM115.415 31.5795V30.5795H114.415V31.5795H115.415ZM115.415 46V47H116.415V46H115.415ZM109.034 46V11.0909H107.034V46H109.034ZM108.034 12.0909H115.415V10.0909H108.034V12.0909ZM114.415 11.0909V25.4943H116.415V11.0909H114.415ZM115.415 26.4943H130.398V24.4943H115.415V26.4943ZM131.398 25.4943V11.0909H129.398V25.4943H131.398ZM130.398 12.0909H137.761V10.0909H130.398V12.0909ZM136.761 11.0909V46H138.761V11.0909H136.761ZM137.761 45H130.398V47H137.761V45ZM131.398 46V31.5795H129.398V46H131.398ZM130.398 30.5795H115.415V32.5795H130.398V30.5795ZM114.415 31.5795V46H116.415V31.5795H114.415ZM115.415 45H108.034V47H115.415V45Z"
              fill="white"
              mask="url(#path-1-outside-1_7_129)"
            />
            <mask
              id="path-3-outside-2_7_129"
              maskUnits="userSpaceOnUse"
              x="3"
              y="9"
              width="98"
              height="39"
              fill="black"
            >
              <rect fill="white" x="3" y="9" width="98" height="39" />
              <path d="M24.9716 21.1307C24.8352 19.7557 24.25 18.6875 23.2159 17.9261C22.1818 17.1648 20.7784 16.7841 19.0057 16.7841C17.8011 16.7841 16.7841 16.9545 15.9545 17.2955C15.125 17.625 14.4886 18.0852 14.0455 18.6761C13.6136 19.267 13.3977 19.9375 13.3977 20.6875C13.375 21.3125 13.5057 21.858 13.7898 22.3239C14.0852 22.7898 14.4886 23.1932 15 23.5341C15.5114 23.8636 16.1023 24.1534 16.7727 24.4034C17.4432 24.642 18.1591 24.8466 18.9205 25.017L22.0568 25.767C23.5795 26.108 24.9773 26.5625 26.25 27.1307C27.5227 27.6989 28.625 28.3977 29.5568 29.2273C30.4886 30.0568 31.2102 31.0341 31.7216 32.1591C32.2443 33.2841 32.5114 34.5739 32.5227 36.0284C32.5114 38.1648 31.9659 40.017 30.8864 41.5852C29.8182 43.142 28.2727 44.3523 26.25 45.2159C24.2386 46.0682 21.8125 46.4943 18.9716 46.4943C16.1534 46.4943 13.6989 46.0625 11.608 45.1989C9.52841 44.3352 7.90341 43.0568 6.73295 41.3636C5.57386 39.6591 4.96591 37.5511 4.90909 35.0398H12.0511C12.1307 36.2102 12.4659 37.1875 13.0568 37.9716C13.6591 38.7443 14.4602 39.3295 15.4602 39.7273C16.4716 40.1136 17.6136 40.3068 18.8864 40.3068C20.1364 40.3068 21.2216 40.125 22.142 39.7614C23.0739 39.3977 23.7955 38.892 24.3068 38.2443C24.8182 37.5966 25.0739 36.8523 25.0739 36.0114C25.0739 35.2273 24.8409 34.5682 24.375 34.0341C23.9205 33.5 23.25 33.0455 22.3636 32.6705C21.4886 32.2955 20.4148 31.9545 19.142 31.6477L15.3409 30.6932C12.3977 29.9773 10.0739 28.858 8.36932 27.3352C6.66477 25.8125 5.81818 23.7614 5.82955 21.1818C5.81818 19.0682 6.38068 17.2216 7.51705 15.642C8.66477 14.0625 10.2386 12.8295 12.2386 11.9432C14.2386 11.0568 16.5114 10.6136 19.0568 10.6136C21.6477 10.6136 23.9091 11.0568 25.8409 11.9432C27.7841 12.8295 29.2955 14.0625 30.375 15.642C31.4545 17.2216 32.0114 19.0511 32.0455 21.1307H24.9716ZM59.0497 11.0909H66.4304V33.7614C66.4304 36.3068 65.8224 38.5341 64.6065 40.4432C63.402 42.3523 61.7145 43.8409 59.544 44.9091C57.3736 45.9659 54.8452 46.4943 51.9588 46.4943C49.0611 46.4943 46.527 45.9659 44.3565 44.9091C42.1861 43.8409 40.4986 42.3523 39.294 40.4432C38.0895 38.5341 37.4872 36.3068 37.4872 33.7614V11.0909H44.8679V33.1307C44.8679 34.4602 45.1577 35.642 45.7372 36.6761C46.3281 37.7102 47.1577 38.5227 48.2259 39.1136C49.294 39.7045 50.5384 40 51.9588 40C53.3906 40 54.6349 39.7045 55.6918 39.1136C56.7599 38.5227 57.5838 37.7102 58.1634 36.6761C58.7543 35.642 59.0497 34.4602 59.0497 33.1307V11.0909ZM71.1733 17.1761V11.0909H99.8438V17.1761H89.1562V46H81.8608V17.1761H71.1733Z" />
            </mask>
            <path
              d="M24.9716 21.1307C24.8352 19.7557 24.25 18.6875 23.2159 17.9261C22.1818 17.1648 20.7784 16.7841 19.0057 16.7841C17.8011 16.7841 16.7841 16.9545 15.9545 17.2955C15.125 17.625 14.4886 18.0852 14.0455 18.6761C13.6136 19.267 13.3977 19.9375 13.3977 20.6875C13.375 21.3125 13.5057 21.858 13.7898 22.3239C14.0852 22.7898 14.4886 23.1932 15 23.5341C15.5114 23.8636 16.1023 24.1534 16.7727 24.4034C17.4432 24.642 18.1591 24.8466 18.9205 25.017L22.0568 25.767C23.5795 26.108 24.9773 26.5625 26.25 27.1307C27.5227 27.6989 28.625 28.3977 29.5568 29.2273C30.4886 30.0568 31.2102 31.0341 31.7216 32.1591C32.2443 33.2841 32.5114 34.5739 32.5227 36.0284C32.5114 38.1648 31.9659 40.017 30.8864 41.5852C29.8182 43.142 28.2727 44.3523 26.25 45.2159C24.2386 46.0682 21.8125 46.4943 18.9716 46.4943C16.1534 46.4943 13.6989 46.0625 11.608 45.1989C9.52841 44.3352 7.90341 43.0568 6.73295 41.3636C5.57386 39.6591 4.96591 37.5511 4.90909 35.0398H12.0511C12.1307 36.2102 12.4659 37.1875 13.0568 37.9716C13.6591 38.7443 14.4602 39.3295 15.4602 39.7273C16.4716 40.1136 17.6136 40.3068 18.8864 40.3068C20.1364 40.3068 21.2216 40.125 22.142 39.7614C23.0739 39.3977 23.7955 38.892 24.3068 38.2443C24.8182 37.5966 25.0739 36.8523 25.0739 36.0114C25.0739 35.2273 24.8409 34.5682 24.375 34.0341C23.9205 33.5 23.25 33.0455 22.3636 32.6705C21.4886 32.2955 20.4148 31.9545 19.142 31.6477L15.3409 30.6932C12.3977 29.9773 10.0739 28.858 8.36932 27.3352C6.66477 25.8125 5.81818 23.7614 5.82955 21.1818C5.81818 19.0682 6.38068 17.2216 7.51705 15.642C8.66477 14.0625 10.2386 12.8295 12.2386 11.9432C14.2386 11.0568 16.5114 10.6136 19.0568 10.6136C21.6477 10.6136 23.9091 11.0568 25.8409 11.9432C27.7841 12.8295 29.2955 14.0625 30.375 15.642C31.4545 17.2216 32.0114 19.0511 32.0455 21.1307H24.9716ZM59.0497 11.0909H66.4304V33.7614C66.4304 36.3068 65.8224 38.5341 64.6065 40.4432C63.402 42.3523 61.7145 43.8409 59.544 44.9091C57.3736 45.9659 54.8452 46.4943 51.9588 46.4943C49.0611 46.4943 46.527 45.9659 44.3565 44.9091C42.1861 43.8409 40.4986 42.3523 39.294 40.4432C38.0895 38.5341 37.4872 36.3068 37.4872 33.7614V11.0909H44.8679V33.1307C44.8679 34.4602 45.1577 35.642 45.7372 36.6761C46.3281 37.7102 47.1577 38.5227 48.2259 39.1136C49.294 39.7045 50.5384 40 51.9588 40C53.3906 40 54.6349 39.7045 55.6918 39.1136C56.7599 38.5227 57.5838 37.7102 58.1634 36.6761C58.7543 35.642 59.0497 34.4602 59.0497 33.1307V11.0909ZM71.1733 17.1761V11.0909H99.8438V17.1761H89.1562V46H81.8608V17.1761H71.1733Z"
              fill="#FE7A36"
            />
            <path
              d="M24.9716 21.1307L23.9765 21.2294L24.0659 22.1307H24.9716V21.1307ZM15.9545 17.2955L16.3238 18.2249L16.3347 18.2204L15.9545 17.2955ZM14.0455 18.6761L13.2454 18.0761L13.2381 18.0861L14.0455 18.6761ZM13.3977 20.6875L14.3971 20.7238L14.3977 20.7057V20.6875H13.3977ZM13.7898 22.3239L12.936 22.8445L12.9406 22.852L12.9453 22.8594L13.7898 22.3239ZM15 23.5341L14.4453 24.3661L14.4518 24.3705L14.4583 24.3747L15 23.5341ZM16.7727 24.4034L16.4233 25.3404L16.4304 25.343L16.4374 25.3455L16.7727 24.4034ZM18.9205 25.017L19.153 24.0445L19.146 24.0428L19.1389 24.0412L18.9205 25.017ZM22.0568 25.767L21.8242 26.7396L21.8313 26.7413L21.8383 26.7429L22.0568 25.767ZM26.25 27.1307L25.8423 28.0438H25.8424L26.25 27.1307ZM29.5568 29.2273L30.2217 28.4804L29.5568 29.2273ZM31.7216 32.1591L30.8112 32.5729L30.8147 32.5805L31.7216 32.1591ZM32.5227 36.0284L33.5228 36.0337L33.5227 36.0206L32.5227 36.0284ZM30.8864 41.5852L30.0627 41.0182L30.0618 41.0195L30.8864 41.5852ZM26.25 45.2159L26.6402 46.1367L26.6427 46.1356L26.25 45.2159ZM11.608 45.1989L11.2244 46.1224L11.2262 46.1231L11.608 45.1989ZM6.73295 41.3636L5.906 41.926L5.91037 41.9323L6.73295 41.3636ZM4.90909 35.0398V34.0398H3.88621L3.90935 35.0624L4.90909 35.0398ZM12.0511 35.0398L13.0488 34.972L12.9855 34.0398H12.0511V35.0398ZM13.0568 37.9716L12.2582 38.5734L12.2631 38.5799L12.2681 38.5863L13.0568 37.9716ZM15.4602 39.7273L15.0906 40.6566L15.1034 40.6614L15.4602 39.7273ZM22.142 39.7614L21.7785 38.8298L21.7746 38.8313L22.142 39.7614ZM24.3068 38.2443L25.0917 38.864L24.3068 38.2443ZM24.375 34.0341L23.6134 34.6823L23.6214 34.6915L24.375 34.0341ZM22.3636 32.6705L21.9697 33.5896L21.974 33.5914L22.3636 32.6705ZM19.142 31.6477L18.8985 32.6177L18.9077 32.6199L19.142 31.6477ZM15.3409 30.6932L15.5845 29.7233L15.5773 29.7215L15.3409 30.6932ZM8.36932 27.3352L7.7031 28.081L8.36932 27.3352ZM5.82955 21.1818L6.82958 21.1862L6.82953 21.1764L5.82955 21.1818ZM7.51705 15.642L6.70805 15.0542L6.70529 15.058L7.51705 15.642ZM25.8409 11.9432L25.4239 12.8521L25.4259 12.853L25.8409 11.9432ZM30.375 15.642L29.5494 16.2063L29.5494 16.2063L30.375 15.642ZM32.0455 21.1307V22.1307H33.062L33.0453 21.1143L32.0455 21.1307ZM25.9667 21.032C25.8048 19.3992 25.0898 18.064 23.8088 17.1209L22.623 18.7314C23.4102 19.311 23.8657 20.1121 23.9765 21.2294L25.9667 21.032ZM23.8088 17.1209C22.5484 16.1929 20.9123 15.7841 19.0057 15.7841V17.7841C20.6445 17.7841 21.8152 18.1367 22.623 18.7314L23.8088 17.1209ZM19.0057 15.7841C17.7129 15.7841 16.5582 15.9662 15.5744 16.3705L16.3347 18.2204C17.0099 17.9429 17.8894 17.7841 19.0057 17.7841V15.7841ZM15.5854 16.3661C14.6204 16.7494 13.8202 17.3098 13.2455 18.0761L14.8455 19.2761C15.1571 18.8607 15.6296 18.5006 16.3237 18.2248L15.5854 16.3661ZM13.2381 18.0861C12.6778 18.8528 12.3977 19.731 12.3977 20.6875H14.3977C14.3977 20.144 14.5495 19.6813 14.8528 19.2662L13.2381 18.0861ZM12.3984 20.6512C12.3696 21.4426 12.5355 22.1877 12.936 22.8445L14.6436 21.8033C14.4759 21.5282 14.3804 21.1824 14.3971 20.7238L12.3984 20.6512ZM12.9453 22.8594C13.3237 23.4561 13.831 23.9566 14.4453 24.3661L15.5547 22.702C15.1463 22.4298 14.8468 22.1234 14.6343 21.7883L12.9453 22.8594ZM14.4583 24.3747C15.0396 24.7493 15.697 25.0695 16.4233 25.3404L17.1221 23.4664C16.5076 23.2373 15.9831 22.978 15.5417 22.6935L14.4583 24.3747ZM16.4374 25.3455C17.1495 25.599 17.9048 25.8144 18.702 25.9929L19.1389 24.0412C18.4134 23.8788 17.7368 23.6851 17.1081 23.4613L16.4374 25.3455ZM18.6879 25.9896L21.8242 26.7396L22.2894 24.7945L19.153 24.0445L18.6879 25.9896ZM21.8383 26.7429C23.3037 27.0709 24.6372 27.5058 25.8423 28.0438L26.6577 26.2175C25.3174 25.6192 23.8554 25.145 22.2753 24.7912L21.8383 26.7429ZM25.8424 28.0438C27.0322 28.575 28.0452 29.2204 28.8919 29.9742L30.2217 28.4804C29.2048 27.575 28.0133 26.8227 26.6576 26.2175L25.8424 28.0438ZM28.8919 29.9742C29.7206 30.7119 30.3581 31.5761 30.8112 32.5729L32.632 31.7453C32.0623 30.4921 31.2567 29.4017 30.2217 28.4804L28.8919 29.9742ZM30.8147 32.5805C31.2677 33.5554 31.5123 34.7002 31.5228 36.0362L33.5227 36.0206C33.5104 34.4476 33.2209 33.0128 32.6285 31.7377L30.8147 32.5805ZM31.5227 36.0231C31.5123 37.9842 31.0148 39.6351 30.0627 41.0182L31.7101 42.1523C32.917 40.399 33.5104 38.3453 33.5227 36.0337L31.5227 36.0231ZM30.0618 41.0195C29.1178 42.3953 27.7348 43.4946 25.8573 44.2962L26.6427 46.1356C28.8107 45.2099 30.5186 43.8888 31.7109 42.151L30.0618 41.0195ZM25.8598 44.2952C24.003 45.082 21.7169 45.4943 18.9716 45.4943V47.4943C21.9081 47.4943 24.4743 47.0544 26.6402 46.1367L25.8598 44.2952ZM18.9716 45.4943C16.2533 45.4943 13.9338 45.0776 11.9897 44.2746L11.2262 46.1231C13.4639 47.0474 16.0535 47.4943 18.9716 47.4943V45.4943ZM11.9915 44.2753C10.072 43.4782 8.60657 42.3154 7.55554 40.795L5.91037 41.9323C7.20025 43.7982 8.9848 45.1923 11.2244 46.1224L11.9915 44.2753ZM7.55988 40.8013C6.53086 39.2881 5.96225 37.3782 5.90883 35.0172L3.90935 35.0624C3.96957 37.7241 4.61686 40.0301 5.90603 41.9259L7.55988 40.8013ZM4.90909 36.0398H12.0511V34.0398H4.90909V36.0398ZM11.0534 35.1076C11.1435 36.4333 11.5294 37.6064 12.2582 38.5734L13.8554 37.3697C13.4024 36.7686 13.1178 35.9871 13.0488 34.972L11.0534 35.1076ZM12.2681 38.5863C12.9902 39.5128 13.9422 40.1997 15.0907 40.6565L15.8298 38.7981C14.9782 38.4594 14.328 37.9758 13.8455 37.3568L12.2681 38.5863ZM15.1034 40.6614C16.2468 41.0982 17.5127 41.3068 18.8864 41.3068V39.3068C17.7146 39.3068 16.6964 39.129 15.8171 38.7931L15.1034 40.6614ZM18.8864 41.3068C20.2304 41.3068 21.4457 41.1117 22.5095 40.6914L21.7746 38.8313C20.9975 39.1383 20.0423 39.3068 18.8864 39.3068V41.3068ZM22.5056 40.6929C23.568 40.2783 24.4489 39.6782 25.0917 38.864L23.5219 37.6247C23.142 38.1059 22.5797 38.5171 21.7785 38.8298L22.5056 40.6929ZM25.0917 38.864C25.7452 38.0362 26.0739 37.0725 26.0739 36.0114H24.0739C24.0739 36.632 23.8911 37.157 23.5219 37.6247L25.0917 38.864ZM26.0739 36.0114C26.0739 35.0132 25.7706 34.1127 25.1286 33.3767L23.6214 34.6915C23.9112 35.0236 24.0739 35.4414 24.0739 36.0114H26.0739ZM25.1365 33.386C24.5506 32.6974 23.7326 32.1638 22.7533 31.7495L21.974 33.5914C22.7674 33.9271 23.2903 34.3026 23.6135 34.6822L25.1365 33.386ZM22.7576 31.7513C21.8159 31.3477 20.685 30.991 19.3764 30.6756L18.9077 32.6199C20.1445 32.918 21.1614 33.2432 21.9697 33.5896L22.7576 31.7513ZM19.3856 30.6778L15.5845 29.7233L15.0974 31.6631L18.8985 32.6176L19.3856 30.6778ZM15.5773 29.7215C12.7438 29.0323 10.5842 27.9729 9.03553 26.5895L7.7031 28.081C9.56356 29.743 12.0517 30.9223 15.1046 31.6648L15.5773 29.7215ZM9.03553 26.5895C7.57326 25.2832 6.81925 23.5204 6.82954 21.1862L4.82956 21.1774C4.81711 24.0023 5.75629 26.3418 7.7031 28.081L9.03553 26.5895ZM6.82953 21.1764C6.8192 19.255 7.32669 17.619 8.3288 16.226L6.70529 15.058C5.43467 16.8242 4.81716 18.8814 4.82956 21.1872L6.82953 21.1764ZM8.32603 16.2299C9.35821 14.8094 10.785 13.6812 12.6438 12.8574L11.8335 11.0289C9.69228 11.9779 7.97134 13.3156 6.70806 15.0542L8.32603 16.2299ZM12.6438 12.8574C14.497 12.0361 16.6283 11.6136 19.0568 11.6136V9.61364C16.3944 9.61364 13.9802 10.0775 11.8335 11.0289L12.6438 12.8574ZM19.0568 11.6136C21.5347 11.6136 23.6483 12.0374 25.4239 12.8521L26.2579 11.0343C24.1699 10.0762 21.7608 9.61364 19.0568 9.61364V11.6136ZM25.4259 12.853C27.2231 13.6728 28.5843 14.7942 29.5494 16.2063L31.2006 15.0778C30.0066 13.3308 28.3451 11.9863 26.2559 11.0334L25.4259 12.853ZM29.5494 16.2063C30.5089 17.6101 31.0144 19.2455 31.0456 21.1471L33.0453 21.1143C33.0083 18.8568 32.4002 16.833 31.2006 15.0778L29.5494 16.2063ZM32.0455 20.1307H24.9716V22.1307H32.0455V20.1307ZM59.0497 11.0909V10.0909H58.0497V11.0909H59.0497ZM66.4304 11.0909H67.4304V10.0909H66.4304V11.0909ZM64.6065 40.4432L63.7631 39.906L63.7608 39.9096L64.6065 40.4432ZM59.544 44.9091L59.9818 45.8082L59.9856 45.8063L59.544 44.9091ZM44.3565 44.9091L43.915 45.8063L43.9188 45.8082L44.3565 44.9091ZM39.294 40.4432L38.4483 40.9768L39.294 40.4432ZM37.4872 11.0909V10.0909H36.4872V11.0909H37.4872ZM44.8679 11.0909H45.8679V10.0909H44.8679V11.0909ZM45.7372 36.6761L44.8648 37.165L44.869 37.1723L45.7372 36.6761ZM48.2259 39.1136L47.7418 39.9887L48.2259 39.1136ZM55.6918 39.1136L55.2077 38.2386L55.2037 38.2408L55.6918 39.1136ZM58.1634 36.6761L57.2951 36.18L57.291 36.1872L58.1634 36.6761ZM59.0497 12.0909H66.4304V10.0909H59.0497V12.0909ZM65.4304 11.0909V33.7614H67.4304V11.0909H65.4304ZM65.4304 33.7614C65.4304 36.1409 64.8644 38.1768 63.7631 39.906L65.45 40.9804C66.7805 38.8913 67.4304 36.4727 67.4304 33.7614H65.4304ZM63.7608 39.9096C62.6619 41.6512 61.1196 43.0192 59.1025 44.0119L59.9856 45.8063C62.3094 44.6627 64.1421 43.0533 65.4523 40.9768L63.7608 39.9096ZM59.1063 44.01C57.0963 44.9887 54.7228 45.4943 51.9588 45.4943V47.4943C54.9675 47.4943 57.6508 46.9432 59.9818 45.8082L59.1063 44.01ZM51.9588 45.4943C49.1828 45.4943 46.8037 44.9884 44.7943 44.01L43.9188 45.8082C46.2502 46.9434 48.9394 47.4943 51.9588 47.4943V45.4943ZM44.7981 44.0119C42.781 43.0192 41.2387 41.6512 40.1398 39.9096L38.4483 40.9768C39.7585 43.0533 41.5912 44.6627 43.915 45.8063L44.7981 44.0119ZM40.1398 39.9096C39.0485 38.18 38.4872 36.1427 38.4872 33.7614H36.4872C36.4872 36.4709 37.1305 38.8882 38.4483 40.9768L40.1398 39.9096ZM38.4872 33.7614V11.0909H36.4872V33.7614H38.4872ZM37.4872 12.0909H44.8679V10.0909H37.4872V12.0909ZM43.8679 11.0909V33.1307H45.8679V11.0909H43.8679ZM43.8679 33.1307C43.8679 34.6102 44.1918 35.9641 44.8649 37.165L46.6096 36.1872C46.1235 35.32 45.8679 34.3102 45.8679 33.1307H43.8679ZM44.869 37.1723C45.5532 38.3696 46.5175 39.3114 47.7418 39.9887L48.7099 38.2386C47.7979 37.7341 47.1031 37.0508 46.6055 36.18L44.869 37.1723ZM47.7418 39.9887C48.9808 40.6741 50.3969 41 51.9588 41V39C50.6798 39 49.6073 38.735 48.7099 38.2386L47.7418 39.9887ZM51.9588 41C53.5302 41 54.9487 40.6748 56.1798 39.9865L55.2037 38.2408C54.3212 38.7343 53.251 39 51.9588 39V41ZM56.1758 39.9887C57.4017 39.3105 58.3624 38.3665 59.0357 37.165L57.291 36.1872C56.8053 37.054 56.1182 37.7349 55.2077 38.2386L56.1758 39.9887ZM59.0316 37.1723C59.7186 35.9701 60.0497 34.6136 60.0497 33.1307H58.0497C58.0497 34.3069 57.79 35.314 57.2951 36.18L59.0316 37.1723ZM60.0497 33.1307V11.0909H58.0497V33.1307H60.0497ZM71.1733 17.1761H70.1733V18.1761H71.1733V17.1761ZM71.1733 11.0909V10.0909H70.1733V11.0909H71.1733ZM99.8438 11.0909H100.844V10.0909H99.8438V11.0909ZM99.8438 17.1761V18.1761H100.844V17.1761H99.8438ZM89.1562 17.1761V16.1761H88.1562V17.1761H89.1562ZM89.1562 46V47H90.1562V46H89.1562ZM81.8608 46H80.8608V47H81.8608V46ZM81.8608 17.1761H82.8608V16.1761H81.8608V17.1761ZM72.1733 17.1761V11.0909H70.1733V17.1761H72.1733ZM71.1733 12.0909H99.8438V10.0909H71.1733V12.0909ZM98.8438 11.0909V17.1761H100.844V11.0909H98.8438ZM99.8438 16.1761H89.1562V18.1761H99.8438V16.1761ZM88.1562 17.1761V46H90.1562V17.1761H88.1562ZM89.1562 45H81.8608V47H89.1562V45ZM82.8608 46V17.1761H80.8608V46H82.8608ZM81.8608 16.1761H71.1733V18.1761H81.8608V16.1761Z"
              fill="white"
              mask="url(#path-3-outside-2_7_129)"
            />
          </g>
          <defs>
            <filter
              id="filter0_dd_7_129"
              x="0.90918"
              y="10.6136"
              width="140.852"
              height="43.8807"
              filterUnits="userSpaceOnUse"
              color-interpolation-filters="sRGB"
            >
              <feFlood flood-opacity="0" result="BackgroundImageFix" />
              <feColorMatrix
                in="SourceAlpha"
                type="matrix"
                values="0 0 0 0 0 0 0 0 0 0 0 0 0 0 0 0 0 0 127 0"
                result="hardAlpha"
              />
              <feOffset dy="4" />
              <feGaussianBlur stdDeviation="2" />
              <feComposite in2="hardAlpha" operator="out" />
              <feColorMatrix
                type="matrix"
                values="0 0 0 0 0 0 0 0 0 0 0 0 0 0 0 0 0 0 0.25 0"
              />
              <feBlend
                mode="normal"
                in2="BackgroundImageFix"
                result="effect1_dropShadow_7_129"
              />
              <feColorMatrix
                in="SourceAlpha"
                type="matrix"
                values="0 0 0 0 0 0 0 0 0 0 0 0 0 0 0 0 0 0 127 0"
                result="hardAlpha"
              />
              <feOffset dy="4" />
              <feGaussianBlur stdDeviation="2" />
              <feComposite in2="hardAlpha" operator="out" />
              <feColorMatrix
                type="matrix"
                values="0 0 0 0 0 0 0 0 0 0 0 0 0 0 0 0 0 0 0.25 0"
              />
              <feBlend
                mode="normal"
                in2="effect1_dropShadow_7_129"
                result="effect2_dropShadow_7_129"
              />
              <feBlend
                mode="normal"
                in="SourceGraphic"
                in2="effect2_dropShadow_7_129"
                result="shape"
              />
            </filter>
          </defs>
        </svg>